<?xml version="1.0" standalone="no"?>
<!DOCTYPE svg PUBLIC "-//W3C//DTD SVG 20010904//EN"
 "http://www.w3.org/TR/2001/REC-SVG-20010904/DTD/svg10.dtd">
<svg version="1.0" xmlns="http://www.w3.org/2000/svg"
 width="410.000000pt" height="1034.000000pt" viewBox="0 0 410.000000 1034.000000"
 preserveAspectRatio="xMidYMid meet">

<g transform="translate(0.000000,1034.000000) scale(0.100000,-0.100000)"
fill="#000000" stroke="none">
<path d="M1025 9677 c13 -10 15 -16 6 -21 -25 -16 4 -26 73 -26 l73 0 7 -37
c4 -28 -3 -1535 -8 -1545 -1 -1 -84 -4 -186 -8 l-185 -6 175 -2 c96 -1 180 -6
186 -10 8 -5 13 -143 18 -452 15 -1069 18 -1237 21 -1275 2 -22 5 -294 6 -605
1 -334 5 -530 10 -480 4 47 7 342 8 655 1 314 6 680 12 815 6 135 14 493 17
795 l7 550 320 3 c176 1 330 0 343 -3 l22 -5 0 -3258 c0 -3158 4 -3666 31
-3820 18 -100 21 -66 8 74 -13 150 -19 3011 -10 5479 l6 1520 182 0 c132 0
185 3 194 13 33 32 -3 34 -547 24 -297 -5 -542 -7 -546 -5 -5 2 -8 250 -9 551
-1 301 -4 660 -8 798 -8 311 1 294 -144 294 -87 0 -98 -2 -82 -13z"/>
<path d="M3149 6600 c-13 -499 -17 -3641 -4 -3705 2 -11 5 -202 6 -425 l2
-405 12 560 c22 984 29 2351 15 3220 -13 838 -23 1074 -31 755z"/>
</g>
</svg>
